<?xml version="1.0" encoding="utf-8"?>
<!-- Generator: Adobe Illustrator 24.1.2, SVG Export Plug-In . SVG Version: 6.00 Build 0)  -->
<svg version="1.0" id="Layer_1" xmlns="http://www.w3.org/2000/svg" xmlns:xlink="http://www.w3.org/1999/xlink" x="0px" y="0px"
	 viewBox="0 0 1732 893" style="enable-background:new 0 0 1732 893;" xml:space="preserve">
<g>
	<g>
		<path d="M891.21,302.36c-19.79,0-32.17-4.12-59.79-18.14c-15.67,9.48-23.09,12.37-33.81,12.37c-15.67,0-30.93-6.6-30.93-19.38
			c0-9.48,12.37-17.32,25.98-17.32c9.07,0,18.56,2.89,35.88,11.96c0,0,7.84-12.78,11.13-21.03c5.36-11.96,10.31-31.34,10.31-31.34
			s-13.2,5.36-21.44,5.36c-25.98,0-44.54-22.27-44.54-48.66c0-32.58,26.8-57.32,62.68-57.32c9.9,0,12.37,0,18.97,4.12
			c-5.77-0.41-13.2-1.65-18.97-1.65c-35.46,0-60.21,24.74-60.21,54.85c0,23.92,17.32,46.19,42.47,46.19c6.6,0,17.32-3.3,22.68-6.6
			c10.31-42.89,16.49-48.25,26.39-61.44c11.13-14.85,24.33-22.27,32.58-22.27c12.78,0,17.32,6.6,17.32,15.26
			c0,21.03-16.49,48.25-54.85,64.33c-4.95,29.28-9.07,37.94-30.1,65.57c24.33,8.66,35.46,10.31,54.43,10.31
			c41.24,0,63.51-17.32,63.51-43.71c0-11.55-5.36-18.97-16.91-27.63l1.24-2.47c10.31,6.19,18.97,15.67,18.97,29.69
			C964.61,274.32,930.79,302.36,891.21,302.36z M788.11,263.6c-9.07,0-18.56,7.01-18.56,13.61c0,8.66,10.31,16.08,23.51,16.08
			c10.31,0,23.92-6.6,32.17-14.02C820.69,276.38,799.66,263.6,788.11,263.6z M910.59,134.11c-17.73,0-37.53,36.29-37.53,73.4
			c23.51-9.07,51.96-40,51.96-60.21C925.02,139.47,922.13,134.11,910.59,134.11z M864.4,372.87c-89.48,0-162.06-72.99-162.06-162.06
			S774.92,48.34,864.4,48.34s162.06,72.99,162.06,162.06S953.89,372.87,864.4,372.87z M864.4,63.59
			c-81.24,0-147.22,65.98-147.22,147.22s65.98,147.22,147.22,147.22s147.22-65.98,147.22-147.22S945.23,63.59,864.4,63.59z"/>
	</g>
	<g>
		<path d="M128.17,663.19c0,5.65-5,10.86-10.42,10.86H13.92c-5.42,0-10.42-5.21-10.42-10.86V477.31c0-5.65,5-10.86,10.42-10.86
			h13.76c5.42,0,10.42,5.21,10.42,10.86v162.43h79.22c5.42,0,10.42,5.21,10.42,10.86L128.17,663.19L128.17,663.19z M315.81,477.75
			c0-5.65,5-10.86,10.42-10.86h13.76c5.42,0,10.42,5.21,10.42,10.86v110.75c0,29.97-7.51,52.12-22.52,66.88
			c-15.01,14.77-33.77,22.15-56.71,22.15c-25.85,0-46.28-8.25-61.29-23.89c-15.84-15.63-23.35-38.22-23.35-67.75V477.31
			c0-5.65,5-10.86,10.42-10.86h13.76c5.42,0,10.42,5.21,10.42,10.86v100.76c0,40.39,16.26,65.15,50.04,65.15
			c29.6,0,44.62-20.85,44.62-62.54V477.75L315.81,477.75z M499.69,541.59l43.36-67.75c2.92-5.21,7.92-7.38,13.34-7.38h13.34
			c5.42,0,10.01,4.78,10.01,10.86c0,2.17-0.42,3.91-1.67,5.65l-56.29,85.56l58.79,89.47c1.25,1.74,1.67,3.47,1.67,5.65
			c0,5.65-4.17,10.86-10.01,10.86H558.9c-5.42,0-10.42-2.61-13.34-7.38l-46.7-70.79l-46.28,70.79c-2.92,5.21-7.92,7.38-13.34,7.38
			h-13.34c-5.42,0-10.01-4.78-10.01-10.86c0-2.17,0.42-3.91,1.67-5.65l58.79-89.47l-55.87-85.56c-1.25-1.74-1.67-3.91-1.67-5.65
			c0-5.65,4.17-10.42,10.01-10.42h13.34c5.42,0,10.42,2.61,13.34,7.38L499.69,541.59z M774.89,663.19c0,5.65-5,10.86-10.42,10.86
			H661.06c-5.42,0-10.42-5.21-10.42-10.86V477.31c0-5.65,5-10.86,10.42-10.86h13.76c5.42,0,10.42,5.21,10.42,10.86v162.43h79.22
			c5.42,0,10.42,5.21,10.42,10.86V663.19z M875.38,663.19c0,5.65-5,10.86-10.42,10.86h-14.18c-5.42,0-10.42-5.21-10.42-10.86V477.31
			c0-5.65,5-10.86,10.42-10.86h13.76c5.42,0,10.42,5.21,10.42,10.86L875.38,663.19L875.38,663.19z M1032.16,620.63l53.37-145.93
			c2.5-5.65,6.25-8.25,11.68-8.25h10.01c6.67,0,11.26,5.65,11.26,11.29c0,1.3,0,2.61-0.83,4.34l-70.47,184.14
			c-2.08,5.65-5.42,8.25-11.68,8.25h-9.59c-5.42,0-9.59-2.61-12.09-8.25l-72.14-184.14c-0.42-1.3-0.83-3.04-0.83-4.34
			c0-5.65,5.42-11.29,10.84-11.29h12.09c5.84,0,9.59,2.61,11.68,8.25L1032.16,620.63z M1219.38,663.19c0,5.65-5,10.86-10.42,10.86
			h-13.76c-5.42,0-10.42-5.21-10.42-10.86V477.31c0-5.65,5-10.86,10.42-10.86h13.76c5.42,0,10.42,5.21,10.42,10.86V663.19z
			 M1469.15,466.89c5.42,0,10.42,5.21,10.42,10.86v185.88c0,5.65-5,10.86-10.42,10.86h-10.01c-5,0-9.17-2.61-12.93-6.95
			l-104.24-136.8v132.9c0,5.65-5,10.86-10.42,10.86h-11.68c-5.42,0-10.42-5.21-10.42-10.86V477.75c0-5.65,5-10.86,10.42-10.86h10.01
			c5,0,9.17,2.61,12.93,6.95l104.24,137.24V477.75c0-5.65,5-10.86,10.42-10.86H1469.15L1469.15,466.89z M1605.49,623.24
			c12.09,13.46,28.77,19.98,49.2,19.98c15.01,0,33.77-6.95,41.28-14.33v-32.57h-37.53c-5.42,0-10.42-5.21-10.42-10.86v-12.16
			c0-5.65,5-10.86,10.42-10.86h59.63c5.42,0,10.42,5.21,10.42,10.86v66.88c0,5.65-2.5,10.86-6.67,13.9
			c-17.51,14.33-45.03,23.02-67.97,23.02c-32.11,0-57.54-9.99-75.89-29.1c-18.35-19.11-27.94-45.17-27.94-78.17
			c0-30.4,9.17-56.02,27.1-76.44c18.35-20.41,42.11-30.4,72.14-30.4c23.77,0,43.36,5.65,59.63,15.63c2.5,1.3,3.75,4.34,3.75,7.82
			c0,2.17-0.42,4.34-1.67,6.08l-6.25,10.86c-2.08,3.04-5,5.21-8.34,5.21c-2.08,0-4.17-0.43-6.67-1.74
			c-11.68-6.08-23.77-9.55-36.28-9.55c-19.6,0-35.86,6.51-47.95,19.11c-12.09,13.03-18.35,30.84-18.35,53.85
			C1587.15,592.4,1593.4,610.21,1605.49,623.24z"/>
	</g>
	<g>
		<g id="XMLID_00000037686377264502957770000005437804153497653913_">
			<g>
				<path d="M1684.68,824.33c0,6.1-2.37,10.91-6.97,14.67c-4.71,3.73-10.48,5.66-17.42,5.66c-7.08,0-14.02-2.89-20.77-8.55
					c-0.84-0.76-1.28-1.71-1.28-2.99c0-0.98,0.33-1.93,0.95-2.69c0.87-1.06,1.93-1.61,3.32-1.61c0.98,0,1.71,0.22,2.48,0.76
					c5.88,4.38,11,6.53,15.4,6.53c8.22,0,14.64-4.41,14.64-11.68c0-18.29-36.58-12.41-36.58-37.23c0-5.55,2.04-10.26,6.1-14.02
					c4.06-3.73,9.53-5.55,16.47-5.55c6.42,0,12.3,1.71,17.55,5.04c1.17,0.73,1.71,1.91,1.71,3.4c0,0.98-0.22,1.71-0.76,2.26
					c-0.95,1.39-2.12,2.04-3.51,2.04c-0.65,0-1.5-0.22-2.48-0.76c-3.73-2.23-7.81-3.43-11.98-3.43c-8.25,0-13.47,4.3-13.47,11.02
					C1648.1,805.71,1684.68,798.77,1684.68,824.33z"/>
				<path d="M1622.19,835.03c2.26,0,4.19,2.04,4.19,4.3c0,2.23-1.93,4.27-4.19,4.27h-34.65c-2.48,0-4.49-2.04-4.49-4.49v-65.92
					c0-2.45,2.01-4.49,4.49-4.49h33.59c2.26,0,4.16,2.04,4.16,4.27c0,2.26-1.91,4.3-4.16,4.3h-28.99v24.17h25.77
					c2.26,0,4.16,2.04,4.16,4.27c0,2.26-1.91,4.27-4.16,4.27h-25.77v25.04H1622.19z"/>
				<path d="M1560.57,773.3v66.55c0,2.48-2.01,4.49-4.49,4.49c-2.56,0-4.6-2.01-4.6-4.49v-56.91l-20.28,28.61l-6.26-4.44
					l25.15-35.82c1.39-2.04,3.1-3.1,5.25-3.1C1558.63,768.18,1560.57,770.63,1560.57,773.3z"/>
				<path d="M1531.2,811.54l-2.18,3.08c-2.89,3.84-6.75,3.84-9.63,0l-22.67-31.03v56.26c0,2.48-2.04,4.49-4.52,4.49
					c-2.56,0-4.6-2.01-4.6-4.49v-65.89c0-3.43,2.15-5.77,5.25-5.77c2.26,0,4.27,1.17,5.88,3.4l26.21,35.52L1531.2,811.54z"/>
				<path d="M1460.22,778.44c7.19,7.16,10.81,16.47,10.81,27.71c0,11.02-3.62,20.22-10.91,27.49c-7.27,7.38-16.36,11.02-27.27,11.02
					c-11.02,0-20.11-3.65-27.27-10.81c-7.29-7.16-10.91-16.47-10.91-27.71c0-10.91,3.62-20.11,10.81-27.49
					c7.16-7.38,16.36-11.02,27.38-11.02S1452.95,771.28,1460.22,778.44z M1453.5,827.54c5.23-5.66,7.89-12.85,7.89-21.39
					c0-8.66-2.78-15.84-8.22-21.5c-5.47-5.66-12.3-8.46-20.33-8.46c-8.25,0-14.97,2.8-20.44,8.46c-5.44,5.66-8.14,12.85-8.14,21.5
					c0,8.46,2.8,15.62,8.25,21.28c5.44,5.77,12.3,8.68,20.33,8.68C1441.27,836.12,1448.13,833.2,1453.5,827.54z"/>
				<path d="M1378.05,772.56v67.28c0,2.48-2.01,4.49-4.49,4.49c-2.56,0-4.6-2.01-4.6-4.49v-30.16h-41.18v30.16
					c0,2.48-2.04,4.49-4.49,4.49c-2.59,0-4.6-2.01-4.6-4.49v-67.28c0-2.48,2.01-4.38,4.6-4.38c2.45,0,4.49,1.91,4.49,4.38v28.55
					h41.18v-28.55c0-2.48,2.04-4.38,4.6-4.38C1376.04,768.18,1378.05,770.09,1378.05,772.56z"/>
				<path d="M1280.39,772.02c0,0.76-0.22,1.61-0.76,2.45l-23.22,37.04v28.33c0,2.48-2.04,4.49-4.49,4.49c-2.56,0-4.6-2.01-4.6-4.49
					v-28.33l-22.67-36.39c-0.54-0.73-0.76-1.61-0.76-2.56c0-2.48,1.93-4.38,4.6-4.38c1.71,0,3.21,1.06,4.49,3.29l19.27,31.46
					l19.35-31.46c1.39-2.23,2.89-3.29,4.71-3.29C1278.87,768.18,1280.39,769.87,1280.39,772.02z"/>
				<path d="M1225.39,837.91c0.22,0.65,0.33,1.31,0.33,1.82c0,2.48-1.71,4.6-4.38,4.6c-2.04,0-3.43-0.95-4.3-2.99l-8.66-20.44
					h-34.13l-8.55,20.44c-0.76,2.04-2.15,2.99-4.08,2.99c-2.67,0-4.27-1.91-4.27-4.16c0-0.44,0.11-1.06,0.44-1.93l28.66-66.44
					c1.09-2.45,2.78-3.62,5.25-3.62c2.45,0,4.16,1.17,5.14,3.62L1225.39,837.91z M1204.84,812.35l-13.47-31.98l-13.47,31.98H1204.84
					z"/>
				<path d="M1152.09,805.2c0,11.21-3.73,20.41-11.1,27.71c-7.51,7.27-18.1,10.91-31.79,10.91c-2.34,0-7.38-0.11-15.08-0.22
					c-2.45,0-4.49-2.04-4.49-4.49v-65.92c0-2.45,1.93-4.49,4.49-4.49c10.48-0.22,15.84-0.33,15.95-0.33
					C1140.01,768.37,1152.09,785.49,1152.09,805.2z M1142.49,805.2c0-8.46-2.8-15.21-8.46-20.44c-5.66-5.25-13.69-7.81-24.17-7.81
					c-3.65,0-8.25,0.33-11.13,0.33v57.75c6.53,0.11,10.15,0.22,10.81,0.22c10.37,0,18.51-2.78,24.28-8.33
					C1139.6,821.45,1142.49,814.18,1142.49,805.2z"/>
				<path d="M1065.03,772.56v67.28c0,2.48-2.04,4.49-4.49,4.49c-2.59,0-4.6-2.01-4.6-4.49v-67.28c0-2.48,2.01-4.38,4.6-4.38
					C1062.98,768.18,1065.03,770.09,1065.03,772.56z"/>
				<path d="M1036.77,835.03c2.26,0,4.16,2.04,4.16,4.3c0,2.23-1.91,4.27-4.16,4.27h-37.34c-2.45,0-4.49-2.04-4.49-4.49v-66.55
					c0-2.48,2.04-4.38,4.6-4.38c2.48,0,4.49,1.91,4.49,4.38v62.46H1036.77z"/>
				<path d="M967.56,778.44c7.16,7.16,10.81,16.47,10.81,27.71c0,11.02-3.65,20.22-10.91,27.49c-7.27,7.38-16.36,11.02-27.27,11.02
					c-11.02,0-20.11-3.65-27.3-10.81c-7.27-7.16-10.91-16.47-10.91-27.71c0-10.91,3.65-20.11,10.81-27.49
					c7.19-7.38,16.38-11.02,27.41-11.02C951.18,767.64,960.29,771.28,967.56,778.44z M960.81,827.54
					c5.25-5.66,7.92-12.85,7.92-21.39c0-8.66-2.78-15.84-8.25-21.5c-5.44-5.66-12.3-8.46-20.3-8.46c-8.25,0-15,2.8-20.44,8.46
					c-5.47,5.66-8.14,12.85-8.14,21.5c0,8.46,2.78,15.62,8.25,21.28c5.44,5.77,12.3,8.68,20.33,8.68
					C948.62,836.12,955.48,833.2,960.81,827.54z"/>
				<path d="M885.39,772.56v67.28c0,2.48-2.04,4.49-4.49,4.49c-2.56,0-4.6-2.01-4.6-4.49v-30.16h-41.18v30.16
					c0,2.48-2.04,4.49-4.52,4.49c-2.56,0-4.6-2.01-4.6-4.49v-67.28c0-2.48,2.04-4.38,4.6-4.38c2.48,0,4.52,1.91,4.52,4.38v28.55
					h41.18v-28.55c0-2.48,2.04-4.38,4.6-4.38C883.35,768.18,885.39,770.09,885.39,772.56z"/>
				<path d="M783.22,799.29v0.22c-0.65,9.63-3.1,18.07-7.38,25.18l-7.16-3.89c3.4-6.18,5.44-13.25,6.1-21.28
					c0.11-2.45,1.61-4.27,4.06-4.27C781.72,795.24,783.22,797.06,783.22,799.29z"/>
				<path d="M781.29,836.96c0.87,1.06,1.31,2.15,1.31,3.21c0,2.26-1.93,4.16-4.08,4.16c-1.39,0-2.78-0.84-4.16-2.56l-6.42-8.03
					c-5.66,7.27-13.25,10.91-23,10.91c-7.08,0-12.85-2.04-17.34-6.1c-4.6-3.95-6.83-9.09-6.83-15.3c0-11.24,6.72-18.62,17.75-25.99
					c-5.33-1.82-9.06-6.12-9.77-11.95l7.89-0.87c0.76,6.34,9.88,9.8,14.51,4.68c3.32-3.32,3.32-8.66,0-12.08
					c-1.58-1.71-3.67-2.48-5.77-2.48l0.22-6.91c4.27,0.08,7.92,1.47,11.1,4.25c3.32,2.89,4.93,6.64,4.93,11.24
					c0,6.83-5.04,13.04-11.13,14.23l18.21,23.41l7.16,3.89c-0.6,1.01-1.25,2.01-1.93,2.97L781.29,836.96z M762.67,826.92
					l-18.7-24.63c-8.9,6.75-13.61,12.33-13.61,19.27c0,4.16,1.5,7.7,4.41,10.37c2.89,2.78,6.29,4.19,10.37,4.19
					C752.74,836.12,758.51,833.01,762.67,826.92z"/>
				<path d="M745.58,767.66l-0.22,6.91c-4.49,0-9.06,3.48-8.79,8.57c-0.03,0.44,0,0.87,0.05,1.31l-7.89,0.87
					c-0.11-0.71-0.16-1.44-0.16-2.18c0-4.49,1.58-8.25,4.9-11.13c3.21-2.89,7.08-4.38,11.57-4.38
					C745.23,767.64,745.39,767.64,745.58,767.66z"/>
				<path d="M678.05,835.03c2.26,0,4.19,2.04,4.19,4.3c0,2.23-1.93,4.27-4.19,4.27h-34.65c-2.48,0-4.49-2.04-4.49-4.49v-65.92
					c0-2.45,2.01-4.49,4.49-4.49h33.59c2.23,0,4.16,2.04,4.16,4.27c0,2.26-1.93,4.3-4.16,4.3h-28.99v24.17h25.77
					c2.26,0,4.16,2.04,4.16,4.27c0,2.26-1.91,4.27-4.16,4.27h-25.77v25.04H678.05z"/>
				<path d="M622.42,768.7c2.26,0,4.19,2.04,4.19,4.27c0,2.26-1.93,4.3-4.19,4.3H600.4v62.57c0,2.48-2.04,4.49-4.52,4.49
					c-2.56,0-4.6-2.01-4.6-4.49v-62.57h-22.02c-2.26,0-4.19-2.04-4.19-4.3c0-2.23,1.93-4.27,4.19-4.27H622.42z"/>
				<path d="M568.61,837.91c0.22,0.65,0.33,1.31,0.33,1.82c0,2.48-1.71,4.6-4.38,4.6c-2.04,0-3.43-0.95-4.3-2.99l-8.66-20.44h-34.13
					l-8.55,20.44c-0.76,2.04-2.15,2.99-4.08,2.99c-2.67,0-4.27-1.91-4.27-4.16c0-0.44,0.11-1.06,0.44-1.93l28.66-66.44
					c1.09-2.45,2.78-3.62,5.25-3.62c2.45,0,4.16,1.17,5.12,3.62L568.61,837.91z M548.06,812.35l-13.47-31.98l-13.47,31.98H548.06z"
					/>
				<path d="M500.24,768.7c2.26,0,4.19,2.04,4.19,4.27c0,2.26-1.93,4.3-4.19,4.3H478.2v62.57c0,2.48-2.01,4.49-4.49,4.49
					c-2.56,0-4.6-2.01-4.6-4.49v-62.57h-22.02c-2.26,0-4.19-2.04-4.19-4.3c0-2.23,1.93-4.27,4.19-4.27H500.24z"/>
				<path d="M436.91,824.33c0,6.1-2.34,10.91-6.94,14.67c-4.71,3.73-10.48,5.66-17.45,5.66c-7.05,0-14.02-2.89-20.77-8.55
					c-0.84-0.76-1.28-1.71-1.28-2.99c0-0.98,0.33-1.93,0.98-2.69c0.84-1.06,1.91-1.61,3.32-1.61c0.95,0,1.69,0.22,2.45,0.76
					c5.88,4.38,11.02,6.53,15.4,6.53c8.25,0,14.64-4.41,14.64-11.68c0-18.29-36.58-12.41-36.58-37.23c0-5.55,2.04-10.26,6.1-14.02
					c4.08-3.73,9.53-5.55,16.49-5.55c6.4,0,12.3,1.71,17.53,5.04c1.17,0.73,1.71,1.91,1.71,3.4c0,0.98-0.22,1.71-0.73,2.26
					c-0.98,1.39-2.15,2.04-3.54,2.04c-0.65,0-1.5-0.22-2.48-0.76c-3.73-2.23-7.78-3.43-11.98-3.43c-8.22,0-13.47,4.3-13.47,11.02
					C400.33,805.71,436.91,798.77,436.91,824.33z"/>
				<path d="M374.45,835.03c2.23,0,4.16,2.04,4.16,4.3c0,2.23-1.93,4.27-4.16,4.27h-34.67c-2.45,0-4.49-2.04-4.49-4.49v-65.92
					c0-2.45,2.04-4.49,4.49-4.49h33.59c2.26,0,4.19,2.04,4.19,4.27c0,2.26-1.93,4.3-4.19,4.3h-28.99v24.17h25.77
					c2.26,0,4.19,2.04,4.19,4.27c0,2.26-1.93,4.27-4.19,4.27h-25.77v25.04H374.45z"/>
				<path d="M296.77,835.03c2.26,0,4.16,2.04,4.16,4.3c0,2.23-1.91,4.27-4.16,4.27h-37.34c-2.45,0-4.49-2.04-4.49-4.49v-66.55
					c0-2.48,2.04-4.38,4.6-4.38c2.45,0,4.49,1.91,4.49,4.38v62.46H296.77z"/>
				<path d="M240.92,837.91c0.22,0.65,0.33,1.31,0.33,1.82c0,2.48-1.71,4.6-4.38,4.6c-2.04,0-3.43-0.95-4.3-2.99l-8.66-20.44h-34.13
					l-8.55,20.44c-0.76,2.04-2.15,2.99-4.08,2.99c-2.67,0-4.27-1.91-4.27-4.16c0-0.44,0.11-1.06,0.44-1.93l28.66-66.44
					c1.09-2.45,2.78-3.62,5.25-3.62c2.45,0,4.16,1.17,5.14,3.62L240.92,837.91z M220.37,812.35l-13.47-31.98l-13.47,31.98H220.37z"
					/>
				<path d="M159.3,835.03c2.23,0,4.16,2.04,4.16,4.3c0,2.23-1.93,4.27-4.16,4.27h-34.67c-2.45,0-4.49-2.04-4.49-4.49v-65.92
					c0-2.45,2.04-4.49,4.49-4.49h33.61c2.23,0,4.16,2.04,4.16,4.27c0,2.26-1.93,4.3-4.16,4.3h-29.01v24.17h25.8
					c2.23,0,4.16,2.04,4.16,4.27c0,2.26-1.93,4.27-4.16,4.27h-25.8v25.04H159.3z"/>
				<path d="M103.45,837.07c0.76,0.95,1.17,2.04,1.17,3.1c0,2.26-1.71,4.16-4.16,4.16c-1.71,0-3.21-0.84-4.6-2.56l-21.5-28.14H62.16
					v26.21c0,2.48-2.04,4.49-4.49,4.49c-2.59,0-4.6-2.01-4.6-4.49v-66.65c0-2.45,2.01-4.49,4.49-4.49
					c7.59-0.11,12.71-0.22,15.62-0.22c17.75,0,26.62,7.4,26.62,22.26c0,5.44-1.61,10.04-4.71,13.8c-3.21,3.76-7.05,6.21-11.54,7.38
					L103.45,837.07z M90.19,790.85c0-9.2-5.91-13.8-17.56-13.8c-2.26,0-5.77,0.11-10.48,0.22v27.82h11.02
					c4.6,0,8.55-1.31,11.98-3.97C88.48,798.56,90.19,795.13,90.19,790.85z"/>
			</g>
			<g>
			</g>
		</g>
	</g>
</g>
</svg>
