<?xml version="1.0" encoding="utf-8"?>
<!-- Generator: Adobe Illustrator 24.1.2, SVG Export Plug-In . SVG Version: 6.00 Build 0)  -->
<svg version="1.1" id="Layer_1" xmlns="http://www.w3.org/2000/svg" xmlns:xlink="http://www.w3.org/1999/xlink" x="0px" y="0px"
	 viewBox="0 0 1610 830" style="enable-background:new 0 0 1610 830;" xml:space="preserve">
<style type="text/css">
	.st0{fill:#FFFFFF;}
</style>
<g>
	<g>
		<path class="st0" d="M828.42,281.05c-18.39,0-29.89-3.83-55.57-16.86c-14.56,8.81-21.46,11.5-31.42,11.5
			c-14.56,0-28.74-6.13-28.74-18.01c0-8.81,11.5-16.09,24.14-16.09c8.43,0,17.24,2.68,33.34,11.11c0,0,7.28-11.88,10.35-19.54
			c4.98-11.11,9.58-29.12,9.58-29.12s-12.26,4.98-19.93,4.98c-24.14,0-41.39-20.69-41.39-45.22c0-30.27,24.91-53.27,58.25-53.27
			c9.2,0,11.5,0,17.63,3.83c-5.36-0.38-12.26-1.53-17.63-1.53c-32.96,0-55.95,22.99-55.95,50.97c0,22.23,16.09,42.92,39.47,42.92
			c6.13,0,16.09-3.07,21.08-6.13c9.58-39.85,15.33-44.84,24.53-57.1c10.35-13.8,22.61-20.69,30.27-20.69
			c11.88,0,16.09,6.13,16.09,14.18c0,19.54-15.33,44.84-50.97,59.78c-4.6,27.21-8.43,35.26-27.97,60.93
			c22.61,8.05,32.96,9.58,50.58,9.58c38.32,0,59.01-16.09,59.01-40.62c0-10.73-4.98-17.63-15.71-25.67l1.15-2.3
			c9.58,5.75,17.63,14.56,17.63,27.59C896.64,254.99,865.21,281.05,828.42,281.05z M732.62,245.03c-8.43,0-17.24,6.51-17.24,12.65
			c0,8.05,9.58,14.95,21.84,14.95c9.58,0,22.23-6.13,29.89-13.03C762.9,256.91,743.35,245.03,732.62,245.03z M846.43,124.7
			c-16.48,0-34.87,33.72-34.87,68.21c21.84-8.43,48.28-37.17,48.28-55.95C859.85,129.69,857.16,124.7,846.43,124.7z M803.52,346.58
			c-83.16,0-150.6-67.83-150.6-150.6S720.36,45,803.52,45s150.6,67.83,150.6,150.6S886.67,346.58,803.52,346.58z M803.52,59.18
			c-75.49,0-136.81,61.31-136.81,136.81s61.31,136.81,136.81,136.81s136.81-61.31,136.81-136.81S878.62,59.18,803.52,59.18z"/>
	</g>
	<g>
		<path class="st0" d="M119.36,616.37c0,5.25-4.65,10.09-9.69,10.09H13.19c-5.04,0-9.69-4.84-9.69-10.09V443.63
			c0-5.25,4.65-10.09,9.69-10.09h12.79c5.04,0,9.69,4.84,9.69,10.09v150.94h73.62c5.04,0,9.69,4.84,9.69,10.09L119.36,616.37
			L119.36,616.37z M293.72,444.04c0-5.25,4.65-10.09,9.69-10.09h12.79c5.04,0,9.69,4.84,9.69,10.09v102.91
			c0,27.85-6.97,48.43-20.92,62.15c-13.95,13.72-31.39,20.58-52.7,20.58c-24.02,0-43.01-7.67-56.96-22.2
			c-14.72-14.53-21.7-35.52-21.7-62.96v-100.9c0-5.25,4.65-10.09,9.69-10.09h12.79c5.04,0,9.69,4.84,9.69,10.09v93.63
			c0,37.53,15.11,60.54,46.5,60.54c27.51,0,41.46-19.37,41.46-58.12V444.04L293.72,444.04z M464.6,503.36l40.3-62.96
			c2.71-4.84,7.36-6.86,12.4-6.86h12.4c5.04,0,9.3,4.44,9.3,10.09c0,2.02-0.39,3.63-1.55,5.25l-52.31,79.51l54.63,83.14
			c1.16,1.61,1.55,3.23,1.55,5.25c0,5.25-3.87,10.09-9.3,10.09h-12.4c-5.04,0-9.69-2.42-12.4-6.86l-43.4-65.78L420.81,620
			c-2.71,4.84-7.36,6.86-12.4,6.86h-12.4c-5.04,0-9.3-4.44-9.3-10.09c0-2.02,0.39-3.63,1.55-5.25l54.63-83.14l-51.92-79.51
			c-1.16-1.61-1.55-3.63-1.55-5.25c0-5.25,3.87-9.69,9.3-9.69h12.4c5.04,0,9.69,2.42,12.4,6.86L464.6,503.36z M720.34,616.37
			c0,5.25-4.65,10.09-9.69,10.09h-96.09c-5.04,0-9.69-4.84-9.69-10.09V443.63c0-5.25,4.65-10.09,9.69-10.09h12.79
			c5.04,0,9.69,4.84,9.69,10.09v150.94h73.62c5.04,0,9.69,4.84,9.69,10.09V616.37z M813.72,616.37c0,5.25-4.65,10.09-9.69,10.09
			h-13.17c-5.04,0-9.69-4.84-9.69-10.09V443.63c0-5.25,4.65-10.09,9.69-10.09h12.79c5.04,0,9.69,4.84,9.69,10.09L813.72,616.37
			L813.72,616.37z M959.41,576.82l49.6-135.6c2.32-5.25,5.81-7.67,10.85-7.67h9.3c6.2,0,10.46,5.25,10.46,10.49
			c0,1.21,0,2.42-0.77,4.04l-65.48,171.12c-1.94,5.25-5.04,7.67-10.85,7.67h-8.91c-5.04,0-8.91-2.42-11.24-7.67l-67.03-171.12
			c-0.39-1.21-0.77-2.83-0.77-4.04c0-5.25,5.04-10.49,10.07-10.49h11.24c5.42,0,8.91,2.42,10.85,7.67L959.41,576.82z
			 M1133.39,616.37c0,5.25-4.65,10.09-9.69,10.09h-12.79c-5.04,0-9.69-4.84-9.69-10.09V443.63c0-5.25,4.65-10.09,9.69-10.09h12.79
			c5.04,0,9.69,4.84,9.69,10.09V616.37z M1365.49,433.95c5.04,0,9.69,4.84,9.69,10.09v172.73c0,5.25-4.65,10.09-9.69,10.09h-9.3
			c-4.65,0-8.52-2.42-12.01-6.46l-96.87-127.13v123.5c0,5.25-4.65,10.09-9.69,10.09h-10.85c-5.04,0-9.69-4.84-9.69-10.09V444.04
			c0-5.25,4.65-10.09,9.69-10.09h9.3c4.65,0,8.52,2.42,12.01,6.46l96.87,127.53v-123.9c0-5.25,4.65-10.09,9.69-10.09H1365.49
			L1365.49,433.95z M1492.19,579.24c11.24,12.51,26.74,18.56,45.72,18.56c13.95,0,31.39-6.46,38.36-13.32v-30.27h-34.87
			c-5.04,0-9.69-4.84-9.69-10.09v-11.3c0-5.25,4.65-10.09,9.69-10.09h55.41c5.04,0,9.69,4.84,9.69,10.09v62.15
			c0,5.25-2.32,10.09-6.2,12.91c-16.27,13.32-41.85,21.39-63.16,21.39c-29.84,0-53.47-9.28-70.52-27.04
			c-17.05-17.76-25.96-41.97-25.96-72.65c0-28.25,8.52-52.06,25.19-71.03c17.05-18.97,39.14-28.25,67.03-28.25
			c22.09,0,40.3,5.25,55.41,14.53c2.32,1.21,3.49,4.04,3.49,7.26c0,2.02-0.39,4.04-1.55,5.65l-5.81,10.09
			c-1.94,2.83-4.65,4.84-7.75,4.84c-1.94,0-3.87-0.4-6.2-1.61c-10.85-5.65-22.09-8.88-33.71-8.88c-18.21,0-33.32,6.05-44.56,17.76
			c-11.24,12.11-17.05,28.65-17.05,50.04C1475.14,550.58,1480.96,567.13,1492.19,579.24z"/>
	</g>
	<g>
		<g id="XMLID_00000037686377264502957770000005437804153497653913_">
			<g>
				<path class="st0" d="M1565.78,766.11c0,5.67-2.2,10.14-6.47,13.63c-4.38,3.47-9.74,5.26-16.19,5.26
					c-6.58,0-13.03-2.68-19.3-7.97c-0.78-0.68-1.19-1.57-1.19-2.78c0-0.89,0.3-1.77,0.89-2.48c0.81-0.99,1.8-1.49,3.09-1.49
					c0.91,0,1.59,0.2,2.3,0.71c5.46,4.07,10.22,6.04,14.32,6.04c7.64,0,13.61-4.07,13.61-10.83c0-17-33.99-11.53-33.99-34.6
					c0-5.16,1.9-9.54,5.67-13.03c3.77-3.47,8.85-5.16,15.3-5.16c5.97,0,11.43,1.59,16.31,4.68c1.09,0.68,1.59,1.77,1.59,3.16
					c0,0.91-0.2,1.59-0.71,2.1c-0.89,1.29-1.97,1.9-3.26,1.9c-0.61,0-1.39-0.2-2.3-0.71c-3.46-2.1-7.26-3.19-11.13-3.19
					c-7.66,0-12.52,3.97-12.52,10.24C1531.78,748.81,1565.78,742.36,1565.78,766.11z"/>
				<path class="st0" d="M1511.6,780.02c0,2.1-1.8,4-3.9,4h-32.2c-2.3,0-4.17-1.9-4.17-4.17v-61.26c0-2.28,1.87-4.17,4.17-4.17
					h31.21c2.1,0,3.87,1.9,3.87,3.97c0,2.1-1.77,4-3.87,4h-26.94v22.46h23.95c2.1,0,3.87,1.9,3.87,3.97c0,2.1-1.77,3.97-3.87,3.97
					h-23.95v23.27h27.92C1509.81,776.05,1511.6,777.95,1511.6,780.02z"/>
				<path class="st0" d="M1450.44,780.53c0,2.28-1.87,4.17-4.17,4.17c-2.38,0-4.27-1.9-4.27-4.17v-52.89l-18.84,26.58l-5.82-4.12
					l23.37-33.31c1.29-1.87,2.88-2.88,4.88-2.88c3.06,0,4.86,2.3,4.86,4.78V780.53z"/>
				<path class="st0" d="M1382.64,719.3c0-3.19,2-5.39,4.88-5.39c2.1,0,3.97,1.11,5.46,3.19l24.36,33.01l5.82,4.12l-2.02,2.83
					c-2.68,3.59-6.27,3.59-8.95,0l-21.07-28.83v52.3c0,2.28-1.9,4.17-4.2,4.17c-2.38,0-4.27-1.9-4.27-4.17V719.3z"/>
				<path class="st0" d="M1350.95,769.1c4.86-5.26,7.33-11.94,7.33-19.88c0-8.07-2.58-14.72-7.64-19.98
					c-5.08-5.29-11.43-7.87-18.89-7.87c-7.66,0-13.91,2.58-18.99,7.87c-5.06,5.26-7.56,11.91-7.56,19.98
					c0,7.84,2.61,14.52,7.66,19.78c5.06,5.36,11.43,8.04,18.89,8.04C1339.59,777.04,1345.96,774.36,1350.95,769.1z M1367.23,749.22
					c0,10.24-3.36,18.79-10.14,25.55c-6.75,6.85-15.2,10.24-25.34,10.24c-10.24,0-18.69-3.39-25.37-10.04
					c-6.75-6.65-10.12-15.3-10.12-25.75c0-10.14,3.36-18.69,10.04-25.55c6.65-6.88,15.2-10.24,25.44-10.24
					c10.24,0,18.69,3.36,25.44,10.04C1363.87,730.12,1367.23,738.77,1367.23,749.22z"/>
				<path class="st0" d="M1272.39,718.01c0-2.3,1.9-4.1,4.27-4.1c2.3,0,4.17,1.8,4.17,4.1v62.52c0,2.28-1.87,4.17-4.17,4.17
					c-2.38,0-4.27-1.9-4.27-4.17V752.5h-38.27v28.02c0,2.28-1.9,4.17-4.17,4.17c-2.4,0-4.27-1.9-4.27-4.17v-62.52
					c0-2.3,1.87-4.1,4.27-4.1c2.28,0,4.17,1.8,4.17,4.1v26.53h38.27V718.01z"/>
				<path class="st0" d="M1189.38,719.78l-21.57,34.4v26.35c0,2.28-1.9,4.17-4.17,4.17c-2.38,0-4.27-1.9-4.27-4.17v-26.35
					l-21.07-33.79c-0.51-0.71-0.71-1.49-0.71-2.38c0-2.3,1.8-4.1,4.27-4.1c1.59,0,2.98,1.01,4.17,3.09l17.91,29.24l17.98-29.24
					c1.29-2.07,2.68-3.09,4.38-3.09c2.38,0,3.79,1.59,3.79,3.59C1190.09,718.18,1189.88,718.99,1189.38,719.78z"/>
				<path class="st0" d="M1102.78,717.3c1.01-2.28,2.58-3.39,4.88-3.39c2.28,0,3.87,1.11,4.78,3.39l26.53,61.43
					c0.2,0.61,0.3,1.19,0.3,1.69c0,2.3-1.59,4.27-4.07,4.27c-1.9,0-3.19-0.89-4-2.78l-8.04-18.99h-31.72l-7.94,18.99
					c-0.71,1.9-2,2.78-3.79,2.78c-2.48,0-3.97-1.8-3.97-3.87c0-0.4,0.1-0.99,0.4-1.8L1102.78,717.3z M1094.84,754.98h25.04
					l-12.52-29.72L1094.84,754.98z"/>
				<path class="st0" d="M1053.86,768.49c5.39-5.06,8.07-11.81,8.07-20.18c0-7.84-2.61-14.11-7.87-18.97
					c-5.26-4.88-12.72-7.26-22.46-7.26c-3.39,0-7.66,0.3-10.34,0.3v53.67c6.07,0.1,9.43,0.2,10.04,0.2
					C1040.94,776.25,1048.5,773.67,1053.86,768.49z M1070.86,748.31c0,10.45-3.46,18.99-10.32,25.77
					c-6.98,6.75-16.82,10.14-29.54,10.14c-2.18,0-6.85-0.1-14.01-0.2c-2.28,0-4.17-1.9-4.17-4.17v-61.26c0-2.28,1.8-4.17,4.17-4.17
					c9.74-0.2,14.72-0.3,14.82-0.3C1059.63,714.11,1070.86,730.02,1070.86,748.31z"/>
				<path class="st0" d="M981.5,718.01c0-2.3,1.87-4.1,4.27-4.1c2.28,0,4.17,1.8,4.17,4.1v62.52c0,2.28-1.9,4.17-4.17,4.17
					c-2.4,0-4.27-1.9-4.27-4.17V718.01z"/>
				<path class="st0" d="M967.57,780.02c0,2.1-1.77,4-3.87,4H929c-2.28,0-4.17-1.9-4.17-4.17v-61.84c0-2.3,1.9-4.1,4.27-4.1
					c2.3,0,4.17,1.8,4.17,4.1v58.05h30.43C965.8,776.05,967.57,777.95,967.57,780.02z"/>
				<path class="st0" d="M838.42,749.22c0-10.14,3.39-18.69,10.04-25.55c6.68-6.88,15.23-10.24,25.47-10.24
					c10.22,0,18.69,3.36,25.44,10.04c6.65,6.65,10.04,15.3,10.04,25.75c0,10.24-3.39,18.79-10.14,25.55
					c-6.75,6.85-15.2,10.24-25.34,10.24c-10.24,0-18.69-3.39-25.37-10.04C841.81,768.31,838.42,759.66,838.42,749.22z
					 M854.94,729.24c-5.08,5.26-7.56,11.91-7.56,19.98c0,7.84,2.58,14.52,7.66,19.78c5.06,5.36,11.43,8.04,18.89,8.04
					c7.84,0,14.21-2.68,19.17-7.94c4.88-5.26,7.36-11.94,7.36-19.88c0-8.07-2.58-14.72-7.66-19.98c-5.06-5.29-11.43-7.87-18.87-7.87
					C866.27,721.37,860,723.95,854.94,729.24z"/>
				<path class="st0" d="M814.57,718.01c0-2.3,1.9-4.1,4.27-4.1c2.28,0,4.17,1.8,4.17,4.1v62.52c0,2.28-1.9,4.17-4.17,4.17
					c-2.38,0-4.27-1.9-4.27-4.17V752.5h-38.27v28.02c0,2.28-1.9,4.17-4.2,4.17c-2.38,0-4.27-1.9-4.27-4.17v-62.52
					c0-2.3,1.9-4.1,4.27-4.1c2.3,0,4.2,1.8,4.2,4.1v26.53h38.27V718.01z"/>
				<path class="st0" d="M721.22,766.44h-0.03l-6.63-3.62c3.16-5.77,5.06-12.32,5.67-19.78c0.1-2.28,1.49-3.97,3.77-3.97
					c2.68,0,4.07,1.69,4.07,3.77v0.2C727.47,752,725.19,759.84,721.22,766.44z"/>
				<path class="st0" d="M708.98,768.49l-17.38-22.86c-8.27,6.27-12.65,11.43-12.65,17.91c0,3.87,1.39,7.16,4.07,9.64
					c2.71,2.58,5.87,3.87,9.66,3.87C699.75,777.04,705.11,774.18,708.98,768.49z M677.41,729.87l7.36-0.81
					c0.71,5.89,9.18,9.11,13.48,4.35c3.09-3.09,3.09-8.07,0-11.23c-1.47-1.59-3.41-2.3-5.36-2.3l0.2-6.42
					c3.97,0.08,7.36,1.37,10.32,3.95c3.09,2.68,4.58,6.17,4.58,10.45c0,6.35-4.68,12.11-10.34,13.23l16.92,21.75l6.63,3.62h0.03
					c-0.56,0.94-1.16,1.87-1.8,2.76l6.85,8.65c0.81,0.99,1.21,2,1.21,2.98c0,2.07-1.8,3.87-3.79,3.87c-1.29,0-2.58-0.78-3.87-2.38
					l-5.97-7.46c-5.26,6.75-12.32,10.14-21.37,10.14c-6.58,0-11.94-1.9-16.11-5.67c-4.27-3.69-6.35-8.45-6.35-14.21
					c0-10.45,6.25-17.3,16.49-24.15C681.56,739.28,678.07,735.28,677.41,729.87z"/>
				<path class="st0" d="M692.89,719.88c-4.17,0-8.42,3.24-8.17,7.97c-0.03,0.4,0,0.81,0.05,1.21l-7.36,0.81
					c-0.1-0.66-0.15-1.34-0.15-2.02c0-4.17,1.49-7.66,4.58-10.34c2.98-2.68,6.58-4.07,10.75-4.07c0.18,0,0.33,0,0.51,0.03
					L692.89,719.88z"/>
				<path class="st0" d="M634.24,780.02c0,2.1-1.8,4-3.9,4h-32.2c-2.3,0-4.17-1.9-4.17-4.17v-61.26c0-2.28,1.87-4.17,4.17-4.17
					h31.21c2.07,0,3.87,1.9,3.87,3.97c0,2.1-1.8,4-3.87,4h-26.94v22.46h23.95c2.1,0,3.87,1.9,3.87,3.97c0,2.1-1.77,3.97-3.87,3.97
					h-23.95v23.27h27.92C632.45,776.05,634.24,777.95,634.24,780.02z"/>
				<path class="st0" d="M582.54,718.38c0,2.1-1.8,4-3.9,4h-20.46v58.15c0,2.28-1.9,4.17-4.2,4.17c-2.38,0-4.27-1.9-4.27-4.17
					v-58.15h-20.46c-2.1,0-3.9-1.9-3.9-4c0-2.07,1.8-3.97,3.9-3.97h49.4C580.75,714.41,582.54,716.31,582.54,718.38z"/>
				<path class="st0" d="M484.51,754.98h25.04l-12.52-29.72L484.51,754.98z M481.12,762.92l-7.94,18.99c-0.71,1.9-2,2.78-3.79,2.78
					c-2.48,0-3.97-1.8-3.97-3.87c0-0.4,0.1-0.99,0.4-1.8l26.63-61.74c0.99-2.28,2.58-3.39,4.88-3.39c2.28,0,3.87,1.11,4.75,3.39
					l26.56,61.43c0.2,0.61,0.3,1.19,0.3,1.69c0,2.3-1.59,4.27-4.07,4.27c-1.9,0-3.19-0.89-4-2.78l-8.04-18.99H481.12z"/>
				<path class="st0" d="M469.01,718.38c0,2.1-1.8,4-3.89,4h-20.49v58.15c0,2.28-1.87,4.17-4.17,4.17c-2.38,0-4.27-1.9-4.27-4.17
					v-58.15h-20.46c-2.1,0-3.89-1.9-3.89-4c0-2.07,1.8-3.97,3.89-3.97h49.4C467.21,714.41,469.01,716.31,469.01,718.38z"/>
				<path class="st0" d="M401.5,723.37c-0.91,1.29-2,1.9-3.29,1.9c-0.61,0-1.39-0.2-2.3-0.71c-3.47-2.1-7.26-3.19-11.13-3.19
					c-7.64,0-12.52,3.97-12.52,10.24c0,17.2,33.99,10.75,33.99,34.5c0,5.67-2.18,10.14-6.45,13.63c-4.38,3.47-9.74,5.26-16.21,5.26
					c-6.55,0-13.03-2.68-19.3-7.97c-0.78-0.68-1.19-1.57-1.19-2.78c0-0.89,0.3-1.77,0.91-2.48c0.78-0.99,1.77-1.49,3.09-1.49
					c0.89,0,1.57,0.2,2.28,0.71c5.46,4.07,10.24,6.04,14.32,6.04c7.66,0,13.61-4.07,13.61-10.83c0-17-33.99-11.53-33.99-34.6
					c0-5.16,1.9-9.54,5.67-13.03c3.79-3.47,8.85-5.16,15.33-5.16c5.94,0,11.43,1.59,16.29,4.68c1.09,0.68,1.59,1.77,1.59,3.16
					C402.19,722.18,401.98,722.86,401.5,723.37z"/>
				<path class="st0" d="M352.08,780.02c0,2.1-1.8,4-3.87,4h-32.22c-2.28,0-4.17-1.9-4.17-4.17v-61.26c0-2.28,1.9-4.17,4.17-4.17
					h31.21c2.1,0,3.89,1.9,3.89,3.97c0,2.1-1.8,4-3.89,4h-26.94v22.46h23.95c2.1,0,3.89,1.9,3.89,3.97c0,2.1-1.8,3.97-3.89,3.97
					h-23.95v23.27h27.95C350.29,776.05,352.08,777.95,352.08,780.02z"/>
				<path class="st0" d="M237.15,718.01c0-2.3,1.9-4.1,4.27-4.1c2.28,0,4.17,1.8,4.17,4.1v58.05h30.43c2.07,0,3.87,1.9,3.87,3.97
					c0,2.1-1.8,4-3.87,4h-34.7c-2.28,0-4.17-1.9-4.17-4.17V718.01z"/>
				<path class="st0" d="M192.51,725.26l-12.52,29.72h25.04L192.51,725.26z M168.66,781.92c-0.71,1.9-2,2.78-3.79,2.78
					c-2.48,0-3.97-1.8-3.97-3.87c0-0.4,0.1-0.99,0.4-1.8l26.63-61.74c1.01-2.28,2.58-3.39,4.88-3.39c2.28,0,3.87,1.11,4.78,3.39
					l26.53,61.43c0.2,0.61,0.3,1.19,0.3,1.69c0,2.3-1.59,4.27-4.07,4.27c-1.9,0-3.19-0.89-4-2.78l-8.04-18.99H176.6L168.66,781.92z"
					/>
				<path class="st0" d="M148.18,748.81c0,2.1-1.8,3.97-3.87,3.97h-23.98v23.27h27.95c2.07,0,3.87,1.9,3.87,3.97c0,2.1-1.8,4-3.87,4
					h-32.22c-2.28,0-4.17-1.9-4.17-4.17v-61.26c0-2.28,1.9-4.17,4.17-4.17h31.24c2.07,0,3.87,1.9,3.87,3.97c0,2.1-1.8,4-3.87,4
					h-26.96v22.46h23.98C146.38,744.84,148.18,746.74,148.18,748.81z"/>
				<path class="st0" d="M58.01,722.38v25.85h10.24c4.27,0,7.94-1.21,11.13-3.69c3.09-2.38,4.68-5.56,4.68-9.54
					c0-8.55-5.49-12.82-16.31-12.82C65.65,722.18,62.39,722.28,58.01,722.38z M49.56,718.59c0-2.28,1.87-4.17,4.17-4.17
					c7.06-0.1,11.81-0.2,14.52-0.2c16.49,0,24.74,6.85,24.74,20.69c0,5.06-1.49,9.33-4.38,12.82c-2.98,3.47-6.55,5.77-10.72,6.85
					l18.49,23.37c0.71,0.89,1.09,1.9,1.09,2.88c0,2.07-1.59,3.87-3.87,3.87c-1.59,0-2.98-0.78-4.27-2.38l-19.98-26.15H58.01v24.36
					c0,2.28-1.9,4.17-4.17,4.17c-2.4,0-4.27-1.9-4.27-4.17V718.59z"/>
			</g>
			<g>
			</g>
		</g>
	</g>
</g>
</svg>
